<svg xmlns="http://www.w3.org/2000/svg" viewBox="0 0 542.07 136.2">
    <path d="M226.85 32.85a22.36 22.36 0 0 1 11.17 19.51v55.65h-29.69v-48a9.29 9.29 0 0 0-2.33-6.38 7.35 7.35 0 0 0-11.25 0 9.29 9.29 0 0 0-2.32 6.38v48h-29.71V31.36h22.36l3 11.1q8.24-12.6 23.25-12.6h4.19a22.2 22.2 0 0 1 11.33 2.99ZM329.3 30.9q-4.12 4.65-12.37 6.9a22.35 22.35 0 0 1 6.22 7.35 18.69 18.69 0 0 1 2.17 8.7A20.17 20.17 0 0 1 321.27 66a27.79 27.79 0 0 1-10.95 8.77 35 35 0 0 1-15 3.23h-10.35q-4.35 0-6.45 1.27a3.72 3.72 0 0 0-2.09 3.23 3.89 3.89 0 0 0 1.79 3.45q1.82 1.2 6.75 1.2h24.46q12 0 18 6.37t6 17a21.77 21.77 0 0 1-4.13 12.67 29.52 29.52 0 0 1-11 9.45 32.17 32.17 0 0 1-14.84 3.53h-39.82a17.47 17.47 0 0 1-12.68-5.25 17.27 17.27 0 0 1-5.32-12.72v-.75a15.83 15.83 0 0 1 3.3-9.68 21.24 21.24 0 0 1 8.1-6.67 16.85 16.85 0 0 1-5.25-5.7 14.74 14.74 0 0 1 2-17.4 19.15 19.15 0 0 1 9.83-6 29.5 29.5 0 0 1-8.41-8.1 17.34 17.34 0 0 1-3.15-9.9q0-10.65 8.85-17.4t25.73-6.75h4.2a50.5 50.5 0 0 1 9.9.9 28.94 28.94 0 0 0 8.1-7.28q2.4-3.52 2.4-5.92h22.21q-.02 8.7-4.15 13.35Zm-56.85 78.9a5.46 5.46 0 0 0-2.18 4.35 5.67 5.67 0 0 0 2.18 4.42 7.88 7.88 0 0 0 5.32 1.88h21.45a8.09 8.09 0 0 0 5.33-1.8 5.47 5.47 0 0 0 2.17-4.35 5.67 5.67 0 0 0-2.17-4.43 7.88 7.88 0 0 0-5.33-1.87h-21.45a8.08 8.08 0 0 0-5.32 1.8Zm10.35-62.44a9.81 9.81 0 0 0 0 13.35 9 9 0 0 0 13 0 9.81 9.81 0 0 0 0-13.35 9.07 9.07 0 0 0-13 0ZM405.2 32.85a22.36 22.36 0 0 1 11.17 19.51v55.65h-29.73v-48a9.29 9.29 0 0 0-2.32-6.38 7.35 7.35 0 0 0-11.25 0 9.29 9.29 0 0 0-2.33 6.38v48h-29.7V31.36h22.35l3 11.1q8.25-12.61 23.25-12.61h4.2a22.2 22.2 0 0 1 11.36 3ZM460.47 21.45h-29.55V0h29.55Zm0 86.55h-29.55V31.5h29.55ZM536.64 35.36q5.47 5.48 5.47 15.08v2.55l-.3 5.7-.3 3.75h-24.3v-3.6a7.88 7.88 0 0 0-1.87-5.33 5.68 5.68 0 0 0-4.43-2.17 5.81 5.81 0 0 0-4.57 2.17 7.89 7.89 0 0 0-1.88 5.33v49.2h-28.99V31.36h22.17l3.3 11.1a26.67 26.67 0 0 1 3.45-4.8 24.38 24.38 0 0 1 6.9-5.4 20.15 20.15 0 0 1 9.9-2.4q9.93-.01 15.45 5.5Z"/>
    <path fill="none" stroke="#000" stroke-linecap="round" stroke-linejoin="round" stroke-width="24" d="m12 18.26 49.17 41.55L12 101.36M80.01 108.36h39.33"/>
</svg>
